# xmcd CD database file
#
# Track frame offsets:
#	150
#	23153
#	44727
#	58050
#	72378
#	84564
#	101967
#	113780
#	129741
#	147555
#	165795
#	185372
#
# Disc length: 3643 seconds
#
# Revision: 0
# Processed by: cddbd v1.5.1PL0 Copyright (c) Steve Scherf et al.
# Submitted via: CDex 1.51
#
DISCID=af0e390c
DTITLE=Jordan Mycoskie - Saltless Tears
DYEAR=2004
DGENRE=Country
TTITLE0=I Want to be Free
TTITLE1=California
TTITLE2=Concrete Shoes
TTITLE3=One Less Thing (To Worry About)
TTITLE4=Poor Danielle
TTITLE5=The Winds of Change
TTITLE6=What's In a Name
TTITLE7=Saltless Tears
TTITLE8=Half a Mile Away
TTITLE9=Santa Fe Cafe
TTITLE10=To Live is to Fly
TTITLE11=Sorority Girl Blues
EXTD=YEAR: 2004
EXTT0=
EXTT1=
EXTT2=
EXTT3=
EXTT4=
EXTT5=
EXTT6=
EXTT7=
EXTT8=
EXTT9=
EXTT10=
EXTT11=
PLAYORDER=
